PathFileType	4	(X/Y/Z)	C:\Users\chris\Documents\GitHub\baseballds\vids\pitch5_Sports2D\pitch5_Sports2D_px_person06.trc
DataRate	CameraRate	NumFrames	NumMarkers	Units	OrigDataRate	OrigDataStartFrame	OrigNumFrames
30	30	7	22	m	30	111	149
Frame#	Time	Hip			RHip			RKnee			RAnkle			RBigToe			RSmallToe			RHeel			LHip			LKnee			LAnkle			LBigToe			LSmallToe			LHeel			Neck			Head			Nose			RShoulder			RElbow			RWrist			LShoulder			LElbow			LWrist		
		X1	Y1	Z1	X2	Y2	Z2	X3	Y3	Z3	X4	Y4	Z4	X5	Y5	Z5	X6	Y6	Z6	X7	Y7	Z7	X8	Y8	Z8	X9	Y9	Z9	X10	Y10	Z10	X11	Y11	Z11	X12	Y12	Z12	X13	Y13	Z13	X14	Y14	Z14	X15	Y15	Z15	X16	Y16	Z16	X17	Y17	Z17	X18	Y18	Z18	X19	Y19	Z19	X20	Y20	Z20	X21	Y21	Z21	X22	Y22	Z22
111	3.6999999999999997	1200.6147057525238	562.3645314597401	0.0	1211.9123141546472	560.1146189024637	0.0	1253.063240327746	656.2456887420985	0.0	1232.7098738493478	752.8941444886108	0.0	1272.376761202541	777.8620953187886	0.0	1266.2196361413326	780.9890992219291	0.0	1221.3453815852004	769.0108009631988	0.0	1184.91945222922	557.6093251675279	0.0	1203.6481342037655	652.9502555879558	0.0	1187.9849382265247	751.8522885794231	0.0	1223.3263136566236	769.519556081212	0.0	1215.1317685599372	767.3041008693093	0.0	1180.226063215337	768.4291892809357	0.0	1215.481596807917	422.88486689034045	0.0	1232.4436202174024	360.5030926366865	0.0	1246.9011468356086	396.8810664442669	0.0	1225.1663741986379	444.02531734037797	0.0	1245.3156833490004	505.29866285171204	0.0	1277.8741491989965	472.32129998175026	0.0	1192.1710572262568	439.05578455100147	0.0	1173.4327771447172	499.287145429196	0.0	1166.6084469162893	530.922139323627	0.0
112	3.7333333333333334	1202.5279591655046	563.2724315118315	0.0	1215.8731184612216	561.2470582818349	0.0	1256.1798803276201	656.1783598012346	0.0	1245.6797759431754	755.8803162157142	0.0	1287.6538708497355	777.4620175211365	0.0	1281.8199258574239	781.3907100355752	0.0	1234.5773630077304	771.9984892223484	0.0	1187.5836727938852	559.2745651841796	0.0	1205.0278367976796	652.6210129641161	0.0	1187.0909607431872	752.0360898188106	0.0	1221.2978409411508	768.1051473749528	0.0	1213.9793748482275	766.3368137887267	0.0	1177.8237436889794	768.4455012961017	0.0	1218.595507754952	423.48797431443097	0.0	1234.2202151343222	361.1851564303633	0.0	1250.2898560785088	397.0004553000346	0.0	1228.1405258375228	444.8133122973794	0.0	1246.9070038032276	506.39527199799073	0.0	1283.6309392108656	485.8387470946831	0.0	1195.201566401839	438.6197910758268	0.0	1182.640429612003	503.2223249678004	0.0	1198.7966995488637	522.5660668382857	0.0
113	3.7666666666666666	1205.7074026503137	563.9486079020195	0.0	1220.7009612639483	563.1880716388675	0.0	1258.884290468977	656.3041113742702	0.0	1257.6466038204003	758.4225080283263	0.0	1300.0483201168356	777.3374027046432	0.0	1295.0046485041476	782.6122856025731	0.0	1246.8477243533027	773.8439844835058	0.0	1191.134315846056	561.956952175941	0.0	1206.269640997677	653.392150413472	0.0	1186.4000933114921	752.5173369418204	0.0	1220.3995724619997	768.7716486680797	0.0	1213.9042279850185	766.6525815102244	0.0	1175.8790880825518	768.6213023113353	0.0	1223.1741512767046	424.5666522169626	0.0	1238.1353934921376	363.8958114415831	0.0	1255.1636193485324	399.1302069145795	0.0	1232.2931657373906	445.9312352138929	0.0	1249.4283385364859	507.1151467620799	0.0	1288.2202450666684	495.1309751732274	0.0	1198.5589085162162	438.449999336328	0.0	1186.7882410906263	504.7623010956698	0.0	1226.5861985395159	515.4792193861263	0.0
114	3.8	1209.6158229707355	564.4780139977207	0.0	1225.77864074934	565.1895858798424	0.0	1261.314798356246	657.1289576721205	0.0	1267.755123193683	759.8225765458224	0.0	1309.1627186011124	776.6631845977442	0.0	1304.794386279347	783.3227555072095	0.0	1257.4342873020732	774.6188201019269	0.0	1194.862178835793	564.3906272153868	0.0	1207.5685778833208	654.5626405011961	0.0	1186.6756552971094	753.5151509562876	0.0	1221.281763796959	770.7463872886868	0.0	1215.1043566929802	768.2396364286164	0.0	1176.0370466284899	769.4323113104954	0.0	1227.727681234991	426.0837951877837	0.0	1243.4621940448892	367.4863224094741	0.0	1259.1620215719267	402.31762181309796	0.0	1236.4456832448318	447.1744487497634	0.0	1255.2292052906075	506.7927522081564	0.0	1290.7507004999225	489.3421226689205	0.0	1202.7156917315272	438.9202147505186	0.0	1198.9737870702147	502.10693898830857	0.0	1254.7041247061998	495.90440405490233	0.0
115	3.8333333333333335	1213.3594633229143	565.2286475742686	0.0	1229.9722841824323	566.4399812230054	0.0	1263.7907723360468	658.7052791511913	0.0	1275.896894396086	759.8724570773115	0.0	1316.1978596961267	775.1927226686582	0.0	1311.678624580392	782.6571396330087	0.0	1265.8473428019283	774.8108654525234	0.0	1197.8099579579489	565.6885291096196	0.0	1209.5976078838685	655.1014544214072	0.0	1187.4804529213172	753.214304353088	0.0	1221.858825657877	770.8767791035717	0.0	1215.3503182045213	767.6816279001771	0.0	1177.3629141127135	769.1966874261971	0.0	1229.946286312007	427.09828433827795	0.0	1245.3602595144732	368.96033808382555	0.0	1259.8413400738423	403.88201271731145	0.0	1238.4604204154891	447.5343899549853	0.0	1262.6810853134816	505.28884157574015	0.0	1293.600229131786	476.6773155178072	0.0	1206.5962416924478	439.61815593583617	0.0	1224.3871613515348	497.7670955648549	0.0	1276.7632657172792	471.7038096061501	0.0
116	3.8666666666666667	1217.0260141615	566.138539216126	0.0	1233.302191874287	566.9928907958183	0.0	1266.2356491187081	660.780288139302	0.0	1282.1264012775373	759.6669684237462	0.0	1321.5417206055486	774.1063377642404	0.0	1316.6126662850247	781.6900333741847	0.0	1272.208195945891	774.8000922458743	0.0	1200.2579028711443	566.3567699378744	0.0	1211.8069044240065	655.4593637622559	0.0	1187.460652659921	749.9420820731494	0.0	1219.5467620771553	767.5499668296214	0.0	1211.1556091551995	760.2812098571267	0.0	1177.2101522218015	764.9322204249931	0.0	1230.1887114209865	427.10559709125295	0.0	1242.9801100607594	367.45295806677404	0.0	1259.187800749416	402.785965640636	0.0	1238.766903624868	446.4691738328349	0.0	1268.5864709122561	503.2789846005439	0.0	1296.7528819595766	469.6484125239966	0.0	1209.0200972744742	439.87669185404684	0.0	1247.7752227447072	496.72685463104096	0.0	1281.6027271910089	467.8285685839062	0.0
117	3.9	1221.2948838410493	567.0660614678217	0.0	1237.2175401469103	567.8013609161472	0.0	1268.397013878756	663.508613708735	0.0	1285.9173247247998	760.8899485052509	0.0	1323.3636579253625	775.077514455217	0.0	1319.6183035842603	782.001948532479	0.0	1277.034220926481	775.1983426318301	0.0	1204.4414749417517	567.4321982622129	0.0	1211.716151750323	657.5596144058402	0.0	1185.6279085545414	746.543287206945	0.0	1214.361398089644	764.3131945835704	0.0	1201.723370381261	747.688113035754	0.0	1173.7400175739199	756.4062429944762	0.0	1230.8252199082442	426.8625181182015	0.0	1242.0015955733584	365.7225936267888	0.0	1260.7338413996408	401.1205678449481	0.0	1240.2414520313594	445.56504079323435	0.0	1271.8881086378276	502.819788644582	0.0	1297.1012532167001	468.52859369461453	0.0	1210.2639589371263	439.68667267346245	0.0	1256.3184554943546	500.21886367987173	0.0	1276.6326021959135	486.96578194317044	0.0
